<svg xmlns="http://www.w3.org/2000/svg" viewBox="0 0 1325 723" role="img" aria-label="HC — Howard Chan" style="color:#1A1815">
  
  <path fill="currentColor" d="M214.5 398L214.5 656L292 683L292 710.5L0 710.5L0 683L77.5 656L77.5 89L0 62L0 34.5L292 34.5L292 61.5L214.5 89L214.5 333L541.5 333L541.5 89L464 62L464 34.5L756 34.5L756 61.5L678.5 89L678.5 656L756 683L756 710.5L464 710.5L464 683L541.5 656L541.5 398L214.5 398ZM1107 657.5L1107 657.5Q1142.5 657.5 1175.5 651L1175.5 651Q1195.5 647.5 1216.5 641L1216.5 641L1289 508.5L1324.5 508.5L1304 683.5Q1261.5 701.5 1204 712Q1146.5 722.5 1081 722.5L1081 722.5Q990 722.5 918.3 700Q846.5 677.5 796 633.5Q745.5 589.5 719.3 525.5Q693 461.5 693 378.5L693 378.5Q693 271 741 191Q789 111 879.3 66.5Q969.5 22 1096.5 22L1096.5 22Q1131.5 22 1165.5 26.5L1165.5 26.5Q1190.5 30 1221.5 37L1221.5 37L1269 0L1293 0L1320.5 249.5L1282.5 254.5L1208.5 120Q1180 105 1154.5 98L1154.5 98Q1119 88.5 1078 88.5L1078 88.5Q1018 88.5 972.8 104.5Q927.5 120.5 897 152.3Q866.5 184 850.8 230.8Q835 277.5 835 339L835 339Q834.5 418.5 854.3 478Q874 537.5 910.5 577.3Q947 617 997 637.3Q1047 657.5 1107 657.5Z"></path>
</svg>